<svg width="177" height="60" viewBox="0 0 177 60" fill="none" xmlns="http://www.w3.org/2000/svg">
<path d="M33.3001 33.2389C33.2935 35.0732 32.9257 36.8883 32.2176 38.5804C31.5096 40.2726 30.4751 41.8087 29.1732 43.101C27.8714 44.3933 26.3278 45.4166 24.6305 46.1122C22.9332 46.8079 21.1154 47.1624 19.2811 47.1555H13.6892L8.37164 52.4346C7.22425 53.5721 5.26074 52.7673 5.26074 51.155V21.1308C5.26167 20.8924 5.30956 20.6565 5.40167 20.4365C5.49377 20.2166 5.6283 20.017 5.79755 19.849C5.96681 19.6811 6.16749 19.5481 6.38813 19.4578C6.60877 19.3674 6.84506 19.3213 7.08349 19.3223H19.2811C27.0242 19.3223 33.3001 25.5526 33.3001 33.2389Z" fill="#31396B"/>
<path d="M60.7917 39.6242C60.3751 39.209 60.1689 38.6445 60.1689 37.9322V17.1057C60.1689 16.4175 60.3647 15.8834 60.7561 15.5033C61.1476 15.1232 61.6874 14.9336 62.3756 14.9346H71.1339C73.8154 14.9346 75.904 15.6047 77.3997 16.945C78.8955 18.2853 79.6429 20.1663 79.6419 22.5881C79.6419 25.0099 78.8945 26.8967 77.3997 28.2483C75.9049 29.6 73.8163 30.2787 71.1339 30.2843H64.7614V37.9379C64.7614 38.6497 64.5533 39.2137 64.1372 39.6298C63.722 40.0436 63.159 40.2526 62.4467 40.2526C61.7585 40.2469 61.2069 40.0379 60.7917 39.6242ZM75.294 22.6237C75.294 19.8749 73.7158 18.4981 70.5595 18.4933H64.7614V26.754H70.5637C73.7201 26.754 75.2983 25.3772 75.2983 22.6237H75.294Z" fill="#31396B"/>
<path d="M85.8908 39.2146C84.5608 38.4909 83.4763 37.3877 82.7756 36.0454C82.0391 34.6691 81.6709 33.0672 81.6709 31.2397C81.6709 29.4123 82.0391 27.8142 82.7756 26.4454C83.4807 25.1111 84.5645 24.0149 85.8908 23.2947C87.2301 22.5601 88.7903 22.1924 90.5714 22.1914C92.3524 22.1905 93.9154 22.5601 95.2605 23.3004C96.5802 24.0182 97.6559 25.1132 98.35 26.4454C99.0733 27.8104 99.4354 29.4066 99.4363 31.2341C99.4372 33.0615 99.0752 34.6634 98.35 36.0397C97.6621 37.3841 96.5856 38.4903 95.2605 39.2146C93.9192 39.9502 92.3586 40.3179 90.5785 40.3179C88.7984 40.3179 87.2358 39.9502 85.8908 39.2146ZM93.8529 35.4412C94.6112 34.4933 94.9903 33.0928 94.9903 31.2397C94.9903 29.4113 94.6112 28.017 93.8529 27.0568C93.0946 26.0966 92.0045 25.616 90.5827 25.6151C89.1609 25.6151 88.0633 26.0957 87.2899 27.0568C86.5164 28.0179 86.1306 29.4123 86.1325 31.2397C86.1325 33.0909 86.5117 34.4914 87.27 35.4412C88.0282 36.3909 89.1183 36.8649 90.5401 36.863C91.9809 36.8639 93.0832 36.39 93.8472 35.4412H93.8529Z" fill="#31396B"/>
<path d="M114.283 22.6591C114.639 22.9672 114.816 23.4302 114.816 24.0482C114.816 24.6881 114.661 25.1644 114.354 25.47C114.047 25.7757 113.487 25.9805 112.681 26.0757L111.613 26.1824C110.212 26.3245 109.186 26.7985 108.533 27.6042C107.881 28.4099 107.555 29.4184 107.554 30.6298V38.1042C107.554 38.7933 107.34 39.3217 106.913 39.6895C106.465 40.0641 105.895 40.2605 105.312 40.2411C104.733 40.2628 104.167 40.0659 103.726 39.6895C103.311 39.3217 103.104 38.7933 103.104 38.1042V24.3269C103.104 23.6634 103.311 23.153 103.726 22.7956C104.16 22.4336 104.711 22.2438 105.276 22.2625C105.893 22.2625 106.391 22.4345 106.77 22.7786C107.149 23.1227 107.339 23.6151 107.339 24.2558V25.6776C107.748 24.6859 108.45 23.8427 109.351 23.2606C110.242 22.69 111.266 22.359 112.322 22.2994L112.822 22.2639C113.437 22.2184 113.924 22.3501 114.283 22.6591Z" fill="#31396B"/>
<path d="M129.608 23.9943C130.785 25.1933 131.374 27.0151 131.374 29.4597V38.1455C131.374 38.7862 131.185 39.291 130.805 39.6597C130.426 40.0284 129.905 40.2123 129.241 40.2114C128.964 40.2222 128.687 40.1775 128.428 40.0798C128.168 39.9821 127.93 39.8335 127.729 39.6426C127.532 39.4478 127.378 39.2142 127.277 38.9567C127.176 38.6991 127.13 38.4233 127.141 38.1469V37.3649C126.753 38.2726 126.086 39.033 125.236 39.536C124.325 40.0702 123.284 40.3413 122.228 40.3194C121.131 40.3348 120.045 40.0913 119.06 39.6085C118.15 39.1687 117.375 38.4925 116.816 37.6507C116.272 36.8275 115.987 35.8605 115.997 34.8739C115.997 33.5915 116.324 32.5825 116.977 31.8469C117.63 31.1114 118.692 30.5777 120.163 30.246C121.634 29.9133 123.664 29.7469 126.251 29.7469H127.141V28.9279C127.141 27.7663 126.893 26.9161 126.394 26.3829C125.894 25.8497 125.088 25.581 123.976 25.581C123.262 25.5816 122.552 25.6811 121.865 25.8768C121.153 26.0787 120.311 26.3697 119.337 26.7497C118.72 27.0588 118.269 27.2128 117.985 27.2118C117.787 27.2176 117.589 27.1791 117.408 27.0992C117.226 27.0193 117.064 26.8999 116.934 26.7497C116.651 26.4116 116.505 25.9792 116.525 25.5384C116.516 25.1659 116.622 24.7996 116.828 24.4891C117.096 24.1344 117.444 23.8476 117.843 23.6516C118.78 23.1621 119.78 22.8028 120.814 22.5839C121.93 22.3275 123.071 22.1964 124.215 22.1929C126.635 22.1957 128.433 22.7962 129.608 23.9943ZM126.013 35.9204C126.76 35.1261 127.134 34.1 127.134 32.8422V32.0943H126.493C124.903 32.0943 123.671 32.1654 122.796 32.3076C121.922 32.4497 121.293 32.699 120.91 33.0554C120.53 33.4109 120.341 33.8986 120.341 34.5142C120.33 34.865 120.396 35.2139 120.533 35.5368C120.671 35.8597 120.877 36.1487 121.137 36.3839C121.677 36.8707 122.384 37.1305 123.111 37.109C124.298 37.109 125.266 36.7128 126.013 35.9204Z" fill="#31396B"/>
<path d="M151.343 15.3256C151.554 15.5123 151.72 15.7432 151.831 16.0018C151.941 16.2604 151.993 16.5403 151.983 16.8213V38.1043C151.983 38.745 151.782 39.2555 151.379 39.6356C150.976 40.0156 150.442 40.2052 149.777 40.2043C149.113 40.2043 148.579 40.0147 148.174 39.6356C147.769 39.2564 147.568 38.746 147.568 38.1043V37.2157C147.054 38.1791 146.268 38.9702 145.308 39.4905C144.276 40.0481 143.117 40.3302 141.944 40.3095C140.526 40.332 139.133 39.9364 137.939 39.172C136.737 38.3805 135.786 37.2629 135.197 35.9502C134.544 34.5664 134.218 32.9725 134.218 31.1687C134.218 29.3649 134.544 27.7863 135.196 26.4327C135.788 25.1524 136.733 24.0674 137.92 23.3048C139.082 22.5702 140.423 22.2024 141.942 22.2014C143.106 22.1792 144.257 22.4486 145.289 22.9849C146.238 23.4833 147.018 24.251 147.532 25.1915V16.7503C147.521 16.4817 147.569 16.2141 147.67 15.9652C147.772 15.7164 147.925 15.492 148.12 15.3071C148.512 14.9403 149.04 14.7564 149.704 14.7555C150.303 14.7321 150.888 14.9357 151.343 15.3256ZM146.413 35.4029C147.183 34.4303 147.568 33.0422 147.568 31.2384C147.568 29.4346 147.183 28.0521 146.413 27.091C145.64 26.1299 144.554 25.6493 143.154 25.6493C141.732 25.6493 140.629 26.1232 139.844 27.0711C139.059 28.019 138.668 29.3839 138.669 31.1659C138.669 32.9668 139.061 34.3668 139.844 35.3659C140.627 36.3649 141.717 36.8635 143.114 36.8616C144.541 36.8635 145.641 36.3773 146.413 35.4029Z" fill="#31396B"/>
<path d="M168.804 23.9943C169.98 25.1933 170.567 27.0151 170.567 29.4597V38.1455C170.567 38.7862 170.378 39.291 169.999 39.6597C169.62 40.0284 169.098 40.2123 168.435 40.2114C168.157 40.2222 167.88 40.1774 167.62 40.0798C167.36 39.9821 167.122 39.8335 166.921 39.6426C166.724 39.4478 166.57 39.2142 166.469 38.9567C166.368 38.6991 166.322 38.4233 166.333 38.1469V37.3649C165.946 38.2725 165.279 39.033 164.43 39.536C163.518 40.0698 162.477 40.341 161.421 40.3194C160.323 40.3347 159.238 40.0912 158.252 39.6085C157.342 39.1686 156.568 38.4924 156.01 37.6507C155.466 36.8275 155.181 35.8605 155.191 34.8739C155.191 33.5915 155.517 32.5825 156.169 31.8469C156.821 31.1114 157.884 30.5777 159.357 30.246C160.827 29.9133 162.856 29.7469 165.443 29.7469H166.333V28.9279C166.333 27.7663 166.085 26.9161 165.585 26.3829C165.086 25.8497 164.28 25.581 163.168 25.581C162.456 25.582 161.747 25.6816 161.061 25.8768C160.35 26.0787 159.508 26.3697 158.535 26.7497C157.917 27.0588 157.466 27.2128 157.181 27.2118C156.983 27.2174 156.786 27.1788 156.604 27.0989C156.422 27.019 156.261 26.8997 156.13 26.7497C155.847 26.4116 155.701 25.9792 155.721 25.5384C155.712 25.1659 155.818 24.7996 156.024 24.4891C156.293 24.1352 156.64 23.8486 157.039 23.6516C157.977 23.1621 158.977 22.8028 160.012 22.5839C161.127 22.3275 162.267 22.1963 163.412 22.1929C165.833 22.1957 167.631 22.7962 168.804 23.9943ZM165.213 35.9204C165.961 35.1261 166.335 34.1 166.335 32.8422V32.0943H165.695C164.104 32.0943 162.872 32.1654 161.998 32.3076C161.124 32.4497 160.49 32.699 160.094 33.0554C159.715 33.4109 159.526 33.8986 159.526 34.5142C159.515 34.8653 159.582 35.2144 159.72 35.5373C159.858 35.8602 160.065 36.1491 160.326 36.3839C160.866 36.8724 161.574 37.1337 162.303 37.1133C163.492 37.1104 164.462 36.7128 165.213 35.9204Z" fill="#31396B"/>
<path d="M50.6016 15.3881V23.2563C50.6 23.704 50.4211 24.1327 50.1039 24.4485C49.7867 24.7644 49.3572 24.9415 48.9096 24.9412H39.2798V34.4943C39.279 34.7163 39.2346 34.9359 39.1489 35.1408C39.0633 35.3456 38.9381 35.5315 38.7806 35.688C38.6231 35.8444 38.4363 35.9683 38.2309 36.0526C38.0255 36.1368 37.8056 36.1798 37.5836 36.1791H32.9855C33.1939 35.2129 33.2987 34.2272 33.2983 33.2388C33.2983 25.5525 27.0224 19.3222 19.2793 19.3222H16.6348V15.3881C16.6355 15.1652 16.6803 14.9447 16.7666 14.7393C16.8528 14.5338 16.9789 14.3474 17.1374 14.1908C17.296 14.0342 17.484 13.9106 17.6905 13.8269C17.897 13.7432 18.1181 13.7012 18.3409 13.7033H27.9651V4.15018C27.9658 3.92817 28.0103 3.70849 28.0959 3.50367C28.1816 3.29885 28.3067 3.11291 28.4642 2.95646C28.6218 2.80001 28.8085 2.67611 29.0139 2.59185C29.2193 2.50758 29.4393 2.46459 29.6613 2.46534H37.5892C37.8113 2.46459 38.0312 2.50758 38.2366 2.59185C38.442 2.67611 38.6288 2.80001 38.7863 2.95646C38.9438 3.11291 39.069 3.29885 39.1546 3.50367C39.2402 3.70849 39.2847 3.92817 39.2855 4.15018V13.7033H48.9096C49.3572 13.7029 49.7867 13.88 50.1039 14.1959C50.4211 14.5117 50.6 14.9405 50.6016 15.3881Z" fill="#01EDB9"/>
<path d="M33.2997 33.2389C33.3002 34.2273 33.1953 35.2129 32.9869 36.1791H29.6556C29.4336 36.1799 29.2136 36.1369 29.0083 36.0526C28.8029 35.9684 28.6161 35.8445 28.4586 35.688C28.3011 35.5316 28.1759 35.3456 28.0903 35.1408C28.0046 34.936 27.9602 34.7163 27.9594 34.4943V24.9412H18.3409C18.1181 24.9433 17.897 24.9013 17.6905 24.8176C17.484 24.7339 17.296 24.6102 17.1374 24.4536C16.9789 24.2971 16.8528 24.1107 16.7666 23.9052C16.6803 23.6997 16.6355 23.4792 16.6348 23.2564V19.3223H19.2779C27.0239 19.3223 33.2997 25.5526 33.2997 33.2389Z" fill="#0DC0A5"/>
<path d="M69.8184 45.1466C69.8998 45.2345 69.963 45.3377 70.0042 45.4502C70.0455 45.5627 70.064 45.6823 70.0587 45.802V54.1594C70.0651 54.2731 70.0483 54.3869 70.0095 54.4939C69.9706 54.6009 69.9104 54.699 69.8326 54.7821C69.7541 54.8577 69.6611 54.9165 69.5592 54.9552C69.4573 54.9938 69.3486 55.0113 69.2397 55.0067C69.1329 55.0123 69.0261 54.9951 68.9263 54.9564C68.8266 54.9177 68.7362 54.8583 68.661 54.7821C68.5117 54.6102 68.4356 54.3867 68.4492 54.1594V48.3414L66.0492 52.8911C65.9602 53.0681 65.8353 53.2245 65.6824 53.3504C65.5467 53.4476 65.3829 53.4976 65.216 53.4925C65.0494 53.4959 64.886 53.4461 64.7497 53.3504C64.5932 53.2252 64.4677 53.0656 64.3828 52.884L61.9658 48.4082V54.1537C61.977 54.3793 61.8983 54.6002 61.7468 54.7679C61.5899 54.9166 61.3824 55.0002 61.1663 55.0017C60.9501 55.0033 60.7414 54.9228 60.5824 54.7764C60.4337 54.6042 60.3577 54.3809 60.3705 54.1537V45.802C60.3595 45.5614 60.4432 45.3261 60.6037 45.1466C60.6849 45.0631 60.7829 44.9979 60.8913 44.9552C60.9996 44.9126 61.1158 44.8935 61.2321 44.8992C61.599 44.8992 61.8857 45.1016 62.0923 45.5063L65.2274 51.4778L68.3468 45.5063C68.5544 45.1006 68.8321 44.8982 69.18 44.8992C69.2977 44.8941 69.4152 44.9135 69.5251 44.956C69.635 44.9986 69.7348 45.0635 69.8184 45.1466Z" fill="#01EDB9"/>
<path d="M77.9142 53.2139C78.0177 53.3572 78.068 53.5322 78.0564 53.7086C78.0564 54.0006 77.882 54.2451 77.5332 54.4423C77.1902 54.629 76.8253 54.7723 76.4469 54.8688C76.0694 54.9731 75.6798 55.0276 75.2882 55.0309C74.1773 55.0309 73.2977 54.711 72.6493 54.0712C72.001 53.4314 71.6764 52.556 71.6754 51.4451C71.6642 50.7943 71.8105 50.1504 72.1019 49.5684C72.3691 49.0388 72.7832 48.5974 73.2948 48.2973C73.8247 47.9914 74.4276 47.8352 75.0394 47.8451C75.6077 47.8315 76.1691 47.9731 76.663 48.2546C77.1248 48.5286 77.4971 48.9306 77.7351 49.412C78.0028 49.9638 78.1345 50.5718 78.119 51.1849C78.119 51.5887 77.9403 51.7906 77.5829 51.7906H73.4185C73.4754 52.4409 73.6588 52.9186 73.9688 53.2238C74.2787 53.529 74.7304 53.6821 75.3237 53.6831C75.5939 53.6878 75.863 53.6499 76.1213 53.5707C76.3879 53.4811 76.6494 53.3772 76.9048 53.2594C77.0934 53.1406 77.3052 53.0635 77.5261 53.0333C77.6004 53.0308 77.6743 53.0458 77.7417 53.0772C77.8092 53.1086 77.8683 53.1554 77.9142 53.2139ZM73.9332 49.5442C73.6488 49.8456 73.4773 50.2783 73.4185 50.8423H76.609C76.5901 50.2679 76.4479 49.8328 76.1825 49.5371C76.0429 49.3864 75.8717 49.2684 75.6812 49.1915C75.4908 49.1146 75.2857 49.0806 75.0806 49.0921C74.8683 49.0828 74.6565 49.1183 74.4588 49.1961C74.2612 49.274 74.0821 49.3926 73.9332 49.5442Z" fill="#01EDB9"/>
<path d="M79.002 56.5877C78.9257 56.5055 78.8669 56.4087 78.8293 56.3031C78.7917 56.1975 78.7759 56.0853 78.783 55.9735V54.4848C78.7721 54.3678 78.7853 54.2498 78.8217 54.1381C78.8582 54.0263 78.9171 53.9232 78.9948 53.8351C79.071 53.7554 79.1633 53.6927 79.2655 53.6513C79.3677 53.6099 79.4775 53.5906 79.5877 53.5948H79.7427C80.0235 53.0803 80.2157 52.5223 80.3114 51.9441C80.4281 51.2231 80.4824 50.4934 80.4735 49.7631V48.91C80.463 48.793 80.4763 48.675 80.5127 48.5634C80.5492 48.4517 80.6079 48.3485 80.6854 48.2602C80.7662 48.1787 80.8633 48.1152 80.9704 48.0738C81.0774 48.0324 81.192 48.014 81.3067 48.0199H84.7944C84.9111 48.0097 85.0288 48.0232 85.1402 48.0596C85.2516 48.096 85.3545 48.1546 85.4427 48.2318C85.5245 48.3124 85.5882 48.4095 85.6296 48.5166C85.6711 48.6237 85.6892 48.7384 85.683 48.8531V53.6019H85.909C86.026 53.5914 86.144 53.6047 86.2557 53.6411C86.3674 53.6775 86.4705 53.7363 86.5588 53.8138C86.6403 53.8946 86.7038 53.9917 86.7452 54.0988C86.7866 54.2058 86.805 54.3204 86.7991 54.4351V55.9735C86.8068 56.0848 86.792 56.1966 86.7556 56.3021C86.7192 56.4076 86.662 56.5048 86.5872 56.5877C86.4238 56.7297 86.2145 56.8079 85.9979 56.8079C85.7813 56.8079 85.5721 56.7297 85.4086 56.5877C85.3343 56.5045 85.2773 56.4073 85.2409 56.3019C85.2045 56.1964 85.1895 56.0848 85.1967 55.9735V54.9299H80.4067V55.9735C80.4136 56.0852 80.3979 56.1972 80.3606 56.3028C80.3232 56.4083 80.2649 56.5052 80.1892 56.5877C80.1094 56.6632 80.015 56.7217 79.9118 56.7596C79.8087 56.7975 79.6989 56.814 79.5892 56.8081C79.4814 56.8134 79.3737 56.7966 79.2727 56.7587C79.1717 56.7208 79.0796 56.6626 79.002 56.5877ZM83.9356 49.3536H82.0019V49.7801C82.0124 50.5618 81.9438 51.3425 81.7972 52.1104C81.6607 52.7683 81.4711 53.2668 81.2285 53.6062H83.9384L83.9356 49.3536Z" fill="#01EDB9"/>
<path d="M93.1197 48.0184C93.3172 47.9141 93.5393 47.8649 93.7624 47.8762C94.0022 47.8645 94.2374 47.9454 94.4192 48.1023C94.5015 48.1798 94.5661 48.2742 94.6086 48.379C94.651 48.4838 94.6703 48.5965 94.6652 48.7094V54.145C94.67 54.2587 94.652 54.3723 94.6122 54.4791C94.5724 54.5858 94.5116 54.6834 94.4334 54.7663C94.3554 54.8454 94.2618 54.9075 94.1585 54.9487C94.0552 54.9898 93.9445 55.009 93.8335 55.0051C93.7201 55.0101 93.607 54.9915 93.5012 54.9503C93.3955 54.9092 93.2994 54.8465 93.2192 54.7663C93.1408 54.6835 93.0798 54.5859 93.0398 54.4792C92.9997 54.3725 92.9814 54.2588 92.9861 54.145V50.1639L90.0003 54.3568C89.8683 54.5643 89.6921 54.7401 89.4842 54.8715C89.2939 54.9668 89.0827 55.0127 88.87 55.0051C88.6328 55.0177 88.4001 54.9371 88.2216 54.7805C88.1397 54.6997 88.076 54.6023 88.0345 54.495C87.9931 54.3876 87.975 54.2727 87.9813 54.1578V48.7251C87.9736 48.611 87.9903 48.4966 88.0304 48.3896C88.0705 48.2826 88.1331 48.1854 88.2139 48.1046C88.2948 48.0237 88.392 47.9612 88.499 47.9211C88.606 47.8809 88.7204 47.8642 88.8344 47.872C88.945 47.8681 89.0552 47.8868 89.1584 47.9269C89.2615 47.967 89.3554 48.0276 89.4344 48.1051C89.513 48.1863 89.5743 48.2826 89.6143 48.3882C89.6544 48.4938 89.6726 48.6065 89.6676 48.7194V52.672L92.6178 48.5487C92.7503 48.342 92.9205 48.1621 93.1197 48.0184Z" fill="#01EDB9"/>
<path d="M100.496 54.782C100.415 54.7034 100.351 54.6085 100.31 54.5036C100.269 54.3987 100.25 54.2861 100.255 54.1735V52.4943C100.032 52.5923 99.7976 52.6634 99.5573 52.7062C99.2711 52.7624 98.9802 52.7905 98.6886 52.79C97.8791 52.79 97.2345 52.6005 96.7549 52.2213C96.2753 51.8422 96.035 51.2517 96.034 50.4498V48.7109C96.0289 48.5985 96.0477 48.4862 96.0891 48.3816C96.1305 48.2769 96.1936 48.1823 96.2743 48.1038C96.4539 47.9576 96.6783 47.8778 96.9099 47.8778C97.1414 47.8778 97.3659 47.9576 97.5454 48.1038C97.6261 48.1823 97.6892 48.2769 97.7307 48.3816C97.7721 48.4862 97.7908 48.5985 97.7857 48.7109V50.1796C97.7857 50.6218 97.8881 50.946 98.0957 51.1536C98.3033 51.3611 98.6274 51.4635 99.0696 51.4635C99.5682 51.4635 99.9635 51.3649 100.255 51.1678V48.7109C100.25 48.5985 100.269 48.4861 100.31 48.3814C100.352 48.2768 100.415 48.1821 100.496 48.1038C100.674 47.9463 100.908 47.8652 101.145 47.8777C101.379 47.8669 101.607 47.9481 101.781 48.1038C101.861 48.1824 101.924 48.2771 101.965 48.3818C102.007 48.4864 102.025 48.5986 102.02 48.7109V54.1706C102.025 54.2831 102.007 54.3955 101.966 54.5004C101.924 54.6053 101.861 54.7003 101.781 54.7791C101.606 54.9338 101.378 55.0144 101.145 55.0038C100.908 55.0169 100.675 54.9374 100.496 54.782Z" fill="#01EDB9"/>
<path d="M104.01 54.782C103.93 54.7031 103.867 54.6081 103.826 54.5033C103.785 54.3984 103.766 54.286 103.771 54.1735V48.7109C103.766 48.5986 103.785 48.4864 103.826 48.3818C103.867 48.2771 103.93 48.1824 104.01 48.1038C104.184 47.9481 104.413 47.8669 104.646 47.8777C104.884 47.8652 105.117 47.9463 105.296 48.1038C105.376 48.1821 105.44 48.2768 105.481 48.3814C105.523 48.4861 105.541 48.5985 105.536 48.7109V50.7014H108.557V48.7109C108.552 48.5985 108.57 48.4861 108.612 48.3814C108.653 48.2768 108.717 48.1821 108.797 48.1038C108.971 47.9479 109.199 47.8667 109.432 47.8777C109.669 47.8652 109.903 47.9463 110.081 48.1038C110.162 48.1821 110.226 48.2768 110.267 48.3814C110.308 48.4861 110.327 48.5985 110.322 48.7109L110.336 54.1038C110.341 54.2244 110.322 54.3448 110.28 54.4577C110.237 54.5707 110.172 54.6738 110.088 54.7607C110.004 54.8431 109.903 54.9074 109.792 54.9496C109.682 54.9919 109.564 55.0113 109.446 55.0066C109.327 55.0127 109.207 54.994 109.096 54.9516C108.984 54.9093 108.883 54.8443 108.797 54.7607C108.716 54.6727 108.652 54.5693 108.611 54.4565C108.57 54.3437 108.551 54.2238 108.557 54.1038V52.0706H105.536V54.1706C105.541 54.2833 105.523 54.3958 105.481 54.5008C105.44 54.6057 105.377 54.7006 105.296 54.7791C105.116 54.9356 104.883 55.0161 104.646 55.0038C104.413 55.0151 104.185 54.9356 104.01 54.782Z" fill="#01EDB9"/>
<path d="M117.232 48.0184C117.429 47.9141 117.651 47.8649 117.874 47.8762C118.114 47.8645 118.349 47.9454 118.531 48.1023C118.614 48.1796 118.678 48.274 118.721 48.3788C118.763 48.4836 118.783 48.5964 118.777 48.7094V54.1449C118.782 54.2587 118.764 54.3723 118.724 54.479C118.684 54.5858 118.624 54.6834 118.545 54.7663C118.467 54.8454 118.374 54.9075 118.27 54.9487C118.167 54.9898 118.056 55.009 117.945 55.0051C117.832 55.0101 117.719 54.9915 117.613 54.9503C117.507 54.9092 117.411 54.8465 117.331 54.7663C117.253 54.6835 117.192 54.5859 117.152 54.4792C117.112 54.3725 117.093 54.2588 117.098 54.1449V50.1639L114.105 54.3568C113.973 54.5643 113.797 54.7401 113.589 54.8715C113.399 54.9669 113.188 55.0129 112.975 55.0051C112.736 55.0192 112.502 54.9391 112.322 54.7819C112.24 54.7011 112.177 54.6037 112.135 54.4964C112.094 54.389 112.076 54.2741 112.082 54.1592V48.7251C112.074 48.611 112.091 48.4966 112.131 48.3896C112.171 48.2826 112.234 48.1854 112.315 48.1046C112.395 48.0237 112.493 47.9612 112.6 47.9211C112.707 47.8809 112.821 47.8642 112.935 47.872C113.046 47.8681 113.156 47.8868 113.259 47.9269C113.362 47.967 113.456 48.0276 113.535 48.1051C113.614 48.1863 113.675 48.2826 113.715 48.3882C113.755 48.4938 113.773 48.6065 113.768 48.7194V52.672L116.718 48.5487C116.854 48.3409 117.028 48.161 117.232 48.0184Z" fill="#01EDB9"/>
<path d="M125.675 48.0186C125.872 47.9142 126.094 47.8651 126.317 47.8764C126.557 47.8647 126.792 47.9456 126.974 48.1025C127.056 48.18 127.121 48.2743 127.163 48.3791C127.206 48.4839 127.225 48.5966 127.22 48.7096V54.1451C127.225 54.259 127.206 54.3727 127.166 54.4794C127.126 54.5861 127.065 54.6837 126.987 54.7664C126.909 54.8457 126.815 54.9079 126.712 54.9491C126.609 54.9902 126.498 55.0093 126.387 55.0053C126.274 55.0099 126.161 54.9911 126.055 54.95C125.949 54.9089 125.853 54.8464 125.773 54.7664C125.695 54.6836 125.634 54.5859 125.594 54.4792C125.554 54.3725 125.536 54.2589 125.541 54.1451V50.1641L122.548 54.357C122.416 54.5645 122.24 54.7402 122.032 54.8717C121.842 54.9666 121.63 55.0125 121.418 55.0053C121.181 55.0179 120.948 54.9373 120.769 54.7807C120.688 54.6998 120.624 54.6025 120.582 54.4951C120.541 54.3878 120.523 54.2728 120.529 54.1579V48.7252C120.521 48.6118 120.538 48.4981 120.578 48.3916C120.617 48.2851 120.679 48.1883 120.759 48.1076C120.839 48.0269 120.936 47.9641 121.042 47.9235C121.148 47.8829 121.262 47.8654 121.375 47.8721C121.486 47.8681 121.596 47.8867 121.699 47.9268C121.802 47.9669 121.896 48.0277 121.975 48.1053C122.054 48.1862 122.115 48.2825 122.156 48.3882C122.196 48.4938 122.214 48.6066 122.208 48.7195V52.6721L125.16 48.5489C125.296 48.341 125.471 48.161 125.675 48.0186ZM122.287 46.2683C121.872 46.0007 121.556 45.604 121.389 45.1394C121.363 45.0621 121.349 44.9809 121.348 44.8991C121.346 44.8288 121.36 44.7589 121.388 44.6943C121.416 44.6297 121.458 44.572 121.51 44.5252C121.612 44.4312 121.746 44.3802 121.884 44.383C121.986 44.3832 122.085 44.4125 122.17 44.4675C122.255 44.5224 122.323 44.6007 122.365 44.693C122.502 44.9712 122.714 45.2056 122.977 45.3698C123.233 45.5291 123.529 45.6124 123.831 45.61C124.126 45.6121 124.415 45.5286 124.664 45.3698C124.928 45.1999 125.146 44.9675 125.299 44.693C125.345 44.6007 125.415 44.5229 125.502 44.4682C125.589 44.4135 125.69 44.384 125.793 44.383C125.86 44.381 125.927 44.3926 125.99 44.417C126.053 44.4414 126.111 44.4782 126.159 44.5252C126.211 44.5729 126.251 44.6309 126.278 44.6954C126.305 44.7598 126.318 44.8293 126.316 44.8991C126.315 44.981 126.3 45.0622 126.273 45.1394C126.114 45.6061 125.8 46.0044 125.383 46.2683C124.919 46.5517 124.383 46.6939 123.839 46.6778C123.292 46.6976 122.752 46.5551 122.287 46.2683Z" fill="#01EDB9"/>
<path d="M138.768 56.5877C138.692 56.5054 138.633 56.4085 138.596 56.303C138.558 56.1974 138.542 56.0854 138.549 55.9735V54.9299H133.686C133.569 54.9405 133.451 54.9272 133.34 54.8908C133.228 54.8544 133.125 54.7956 133.036 54.7181C132.955 54.6374 132.891 54.5404 132.849 54.4332C132.808 54.3261 132.79 54.2114 132.796 54.0967V48.711C132.791 48.5985 132.809 48.4862 132.851 48.3815C132.892 48.2768 132.956 48.1821 133.036 48.1038C133.21 47.9478 133.439 47.8665 133.672 47.8778C133.91 47.8652 134.143 47.9464 134.322 48.1038C134.402 48.1824 134.465 48.2772 134.506 48.3818C134.547 48.4865 134.566 48.5986 134.561 48.711V53.602H137.272V48.711C137.267 48.5985 137.285 48.4862 137.327 48.3815C137.368 48.2768 137.431 48.1821 137.512 48.1038C137.69 47.9462 137.923 47.865 138.161 47.8778C138.394 47.8665 138.622 47.9478 138.796 48.1038C138.877 48.1821 138.94 48.2768 138.982 48.3815C139.023 48.4862 139.042 48.5985 139.036 48.711V53.602H139.263C139.38 53.5914 139.497 53.6048 139.609 53.6412C139.721 53.6776 139.824 53.7363 139.912 53.8138C139.994 53.8947 140.057 53.9919 140.098 54.099C140.139 54.206 140.157 54.3206 140.151 54.4351V55.9735C140.158 56.0848 140.143 56.1965 140.107 56.3019C140.071 56.4074 140.014 56.5045 139.939 56.5877C139.861 56.6635 139.769 56.7222 139.667 56.7601C139.565 56.7981 139.456 56.8144 139.348 56.8081C139.241 56.8123 139.135 56.795 139.035 56.7571C138.936 56.7192 138.845 56.6616 138.768 56.5877Z" fill="#01EDB9"/>
<path d="M147.034 53.2139C147.138 53.3572 147.188 53.5322 147.177 53.7086C147.177 54.0006 147.003 54.2451 146.655 54.4423C146.311 54.6292 145.946 54.7725 145.567 54.8688C145.19 54.9731 144.801 55.0276 144.41 55.0309C143.299 55.0309 142.419 54.711 141.77 54.0712C141.12 53.4314 140.796 52.556 140.796 51.4451C140.784 50.7942 140.93 50.1502 141.222 49.5684C141.489 49.0388 141.903 48.5974 142.415 48.2973C142.944 47.9916 143.547 47.8353 144.158 47.8451C144.727 47.8315 145.288 47.9731 145.782 48.2546C146.244 48.529 146.616 48.9309 146.855 49.412C147.121 49.9619 147.252 50.5673 147.236 51.1778C147.236 51.5816 147.058 51.7835 146.7 51.7835H142.534C142.591 52.4338 142.775 52.9115 143.086 53.2167C143.397 53.5219 143.849 53.675 144.441 53.6759C144.711 53.6807 144.98 53.6428 145.239 53.5636C145.505 53.474 145.767 53.3701 146.022 53.2523C146.211 53.1335 146.423 53.0564 146.643 53.0262C146.719 53.0243 146.794 53.0403 146.862 53.0729C146.93 53.1056 146.989 53.1539 147.034 53.2139ZM143.053 49.5442C142.769 49.8456 142.597 50.2783 142.537 50.8423H145.735C145.715 50.2679 145.573 49.8328 145.308 49.5371C145.169 49.3865 144.998 49.2685 144.807 49.1916C144.617 49.1147 144.412 49.0807 144.207 49.0921C143.993 49.082 143.78 49.117 143.582 49.195C143.383 49.2729 143.203 49.3919 143.053 49.5442Z" fill="#01EDB9"/>
<path d="M148.877 54.782C148.796 54.7034 148.733 54.6085 148.691 54.5036C148.65 54.3987 148.631 54.2861 148.637 54.1735V48.7109C148.631 48.5984 148.65 48.4861 148.691 48.3814C148.733 48.2767 148.796 48.1821 148.877 48.1038C149.051 47.9477 149.279 47.8665 149.512 47.8777C149.75 47.8652 149.983 47.9464 150.161 48.1038C150.242 48.1821 150.305 48.2767 150.346 48.3814C150.388 48.4861 150.407 48.5984 150.401 48.7109V50.7014H153.422V48.7109C153.417 48.5984 153.436 48.4861 153.477 48.3814C153.519 48.2767 153.582 48.1821 153.663 48.1038C153.837 47.9477 154.065 47.8665 154.298 47.8777C154.536 47.8652 154.768 47.9464 154.947 48.1038C155.027 48.1821 155.091 48.2767 155.132 48.3814C155.174 48.4861 155.192 48.5984 155.187 48.7109L155.201 54.1038C155.207 54.2244 155.188 54.3448 155.145 54.4577C155.103 54.5707 155.037 54.6738 154.954 54.7607C154.776 54.9192 154.546 55.0067 154.308 55.0067C154.07 55.0067 153.84 54.9192 153.663 54.7607C153.581 54.6728 153.517 54.5693 153.476 54.4565C153.435 54.3437 153.417 54.2238 153.422 54.1038V52.0706H150.401V54.1706C150.407 54.2833 150.388 54.3958 150.346 54.5008C150.305 54.6057 150.242 54.7006 150.161 54.7791C149.982 54.9355 149.75 55.0161 149.512 55.0038C149.28 55.0158 149.052 54.9361 148.877 54.782Z" fill="#01EDB9"/>
<path d="M158.801 54.7819C158.72 54.7034 158.657 54.6085 158.616 54.5035C158.574 54.3986 158.556 54.2861 158.561 54.1734V49.3464H156.937C156.846 49.3505 156.755 49.3364 156.669 49.3049C156.583 49.2734 156.504 49.2252 156.437 49.163C156.314 49.0329 156.246 48.861 156.246 48.6824C156.246 48.5038 156.314 48.3319 156.437 48.2018C156.573 48.0768 156.753 48.0108 156.937 48.0184H161.943C162.128 48.0109 162.309 48.0768 162.445 48.2018C162.568 48.3319 162.636 48.5038 162.636 48.6824C162.636 48.861 162.568 49.0329 162.445 49.163C162.378 49.2251 162.299 49.2733 162.213 49.3048C162.127 49.3363 162.035 49.3504 161.943 49.3464H160.32V54.1706C160.325 54.2831 160.307 54.3955 160.265 54.5004C160.224 54.6053 160.161 54.7002 160.081 54.7791C159.906 54.9337 159.678 55.0143 159.445 55.0037C159.21 55.0155 158.979 54.9361 158.801 54.7819Z" fill="#01EDB9"/>
<path d="M169.282 48.3014C169.76 48.6155 170.137 49.0595 170.37 49.581C170.638 50.1777 170.771 50.8265 170.758 51.4806C170.773 52.1279 170.64 52.7701 170.37 53.3588C170.139 53.8711 169.762 54.3037 169.286 54.6024C168.81 54.9011 168.256 55.0526 167.694 55.0379C167.238 55.0456 166.787 54.939 166.382 54.728C166.008 54.5326 165.699 54.2334 165.492 53.8664V56.7441C165.497 56.8522 165.478 56.9601 165.437 57.0601C165.396 57.1602 165.333 57.2499 165.253 57.3228C165.075 57.4699 164.848 57.5454 164.618 57.5346C164.382 57.5449 164.152 57.4639 163.975 57.3086C163.893 57.2336 163.829 57.1417 163.786 57.0393C163.743 56.937 163.723 56.8265 163.727 56.7157V48.7109C163.722 48.5991 163.74 48.4873 163.78 48.3828C163.82 48.2783 163.882 48.1833 163.961 48.1038C164.045 48.0262 164.144 47.9662 164.252 47.9274C164.36 47.8886 164.475 47.8717 164.589 47.8777C164.822 47.8669 165.051 47.9481 165.225 48.1038C165.305 48.1824 165.368 48.2771 165.409 48.3818C165.45 48.4864 165.469 48.5986 165.464 48.7109V49.0635C165.667 48.6823 165.979 48.3704 166.361 48.1678C166.771 47.9508 167.23 47.8413 167.694 47.8493C168.257 47.8404 168.809 47.9976 169.282 48.3014ZM168.528 53.0943C168.839 52.7152 168.995 52.1763 168.994 51.4777C168.994 50.7621 168.838 50.2066 168.528 49.8114C168.374 49.6167 168.176 49.4613 167.95 49.3582C167.724 49.2551 167.477 49.2072 167.229 49.2185C166.661 49.2185 166.225 49.4114 165.923 49.7972C165.62 50.1829 165.467 50.7337 165.464 51.4493C165.464 52.1555 165.617 52.7014 165.923 53.0872C166.229 53.473 166.664 53.6659 167.229 53.6659C167.475 53.6783 167.721 53.6331 167.946 53.5338C168.172 53.4346 168.371 53.2841 168.528 53.0943Z" fill="#01EDB9"/>
</svg>
